HIERARCHY
ROOT reference
{
  OFFSET 0 0 0
  CHANNELS 6 Xposition Yposition Zposition Zrotation Xrotation Yrotation
  JOINT Hips
  {
    OFFSET -0.345581 76.2627 47.4559
    CHANNELS 6 Xposition Yposition Zposition Zrotation Xrotation Yrotation
    JOINT Spine
    {
      OFFSET 0 7.85829 0
      CHANNELS 6 Xposition Yposition Zposition Zrotation Xrotation Yrotation
      JOINT Spine1
      {
        OFFSET 0 25.1384 0
        CHANNELS 6 Xposition Yposition Zposition Zrotation Xrotation Yrotation
        JOINT Neck
        {
          OFFSET 0 25.0351 2.27592
          CHANNELS 6 Xposition Yposition Zposition Zrotation Xrotation Yrotation
          JOINT Head
          {
            OFFSET 0 13.4166 -1.91665
            CHANNELS 6 Xposition Yposition Zposition Zrotation Xrotation Yrotation
            End Site
            {
              OFFSET 0 23.9582 0
            }
          }
        }
        JOINT LeftShoulder
        {
          OFFSET 3.81534 24.0346 -0.234509
          CHANNELS 6 Xposition Yposition Zposition Zrotation Xrotation Yrotation
          JOINT LeftArm
          {
            OFFSET 8.62273 0 0
            CHANNELS 6 Xposition Yposition Zposition Zrotation Xrotation Yrotation
            JOINT LeftForeArm
            {
              OFFSET 31.7064 0 0
              CHANNELS 6 Xposition Yposition Zposition Zrotation Xrotation Yrotation
              JOINT LeftHand
              {
                OFFSET 23.7731 0 0
                CHANNELS 6 Xposition Yposition Zposition Zrotation Xrotation Yrotation
                End Site
                {
                  OFFSET 14.3749 0 0
                }
              }
            }
          }
        }
        JOINT RightShoulder
        {
          OFFSET -3.83608 24.0346 -0.234509
          CHANNELS 6 Xposition Yposition Zposition Zrotation Xrotation Yrotation
          JOINT RightArm
          {
            OFFSET -8.62273 0 0
            CHANNELS 6 Xposition Yposition Zposition Zrotation Xrotation Yrotation
            JOINT RightForeArm
            {
              OFFSET -31.7064 0 0
              CHANNELS 6 Xposition Yposition Zposition Zrotation Xrotation Yrotation
              JOINT RightHand
              {
                OFFSET -23.7731 0 0
                CHANNELS 6 Xposition Yposition Zposition Zrotation Xrotation Yrotation
                End Site
                {
                  OFFSET -14.3749 0 0
                }
              }
            }
          }
        }
      }
    }
    JOINT LeftUpLeg
    {
      OFFSET 9.58328 0 0
      CHANNELS 6 Xposition Yposition Zposition Zrotation Xrotation Yrotation
      JOINT LeftLeg
      {
        OFFSET 0 -36.4535 0
        CHANNELS 6 Xposition Yposition Zposition Zrotation Xrotation Yrotation
        JOINT LeftFoot
        {
          OFFSET 0 -41.4659 0
          CHANNELS 6 Xposition Yposition Zposition Zrotation Xrotation Yrotation
          JOINT LeftToeBase
          {
            OFFSET 0 -6.22913 14.3749
            CHANNELS 6 Xposition Yposition Zposition Zrotation Xrotation Yrotation
            End Site
            {
              OFFSET 0 0 3.83331
            }
          }
        }
      }
    }
    JOINT RightUpLeg
    {
      OFFSET -9.58328 0 0
      CHANNELS 6 Xposition Yposition Zposition Zrotation Xrotation Yrotation
      JOINT RightLeg
      {
        OFFSET 0 -36.4535 0
        CHANNELS 6 Xposition Yposition Zposition Zrotation Xrotation Yrotation
        JOINT RightFoot
        {
          OFFSET 0 -41.4659 0
          CHANNELS 6 Xposition Yposition Zposition Zrotation Xrotation Yrotation
          JOINT RightToeBase
          {
            OFFSET 0 -6.22913 14.3749
            CHANNELS 6 Xposition Yposition Zposition Zrotation Xrotation Yrotation
            End Site
            {
              OFFSET 0 0 3.83331
            }
          }
        }
      }
    }
  }
}
MOTION
Frames:	5
Frame Time:	0.004
0 0 0 0 0 -0 -11.291 77.3081 -203.165 1.90974 -2.38278 -1.60311 0 7.85829 0 -1.36675 -7.78247 1.44269 0 25.1384 2.84217e-014 1.04137 -1.81229 1.56497 -8.88178e-016 25.0351 2.27592 -1.49323 32.4068 1.23581 0 13.4166 -1.91665 1.92778 -9.02231 1.46895 3.81534 24.0346 -0.234509 9.69668 2.60776 5.1385 8.62273 0 0 -10.811 -4.12393 -5.22007 31.7064 0 0 2.30123 1.6471 0.476812 23.7731 0 0 -1.98912 1.65675 -1.09071 -3.83608 24.0346 -0.234509 -10.4265 -0.530709 6.32207 -8.62273 0 -2.84217e-014 5.11656 0.071899 0.31373 -31.7064 2.84217e-014 -2.84217e-014 -2.76882 -1.67106 1.18286 -23.7731 0 2.84217e-014 -13.0896 -1.89453 2.11404 9.58328 -1.42109e-014 -2.84217e-014 0.358463 10.4948 -0.319863 0 -36.4535 0 -8.31097 -4.76803 5.40906 1.77636e-015 -41.4659 2.84217e-014 14.636 -10.8991 5.31325 -3.55271e-015 -6.22913 14.3749 2.78299e-015 0 -1.59028e-015 -9.58328 0 0 -2.28262 4.90106 3.58762 0 -36.4535 -2.84217e-014 4.6867 6.14774 8.88598 3.55271e-015 -41.4659 0 -21.4215 -13.4243 -21.1908 0 -6.22913 14.3749 -2.5842e-015 0 1.59028e-015 
0 0 0 0 0 -0 -11.291 77.3081 -203.165 1.90974 -2.38278 -1.60311 0 7.85829 0 -1.36675 -7.78247 1.44269 0 25.1384 2.84217e-014 1.04887 -1.81229 1.56497 -1.77636e-015 25.0351 2.27592 -1.48621 32.4211 1.22404 1.77636e-015 13.4166 -1.91665 1.90467 -9.05447 1.4531 3.81534 24.0346 -0.234509 9.69609 2.61419 5.13875 8.62273 0 0 -10.8309 -4.10964 -5.22332 31.7064 0 -2.84217e-014 2.28597 1.63504 0.476809 23.7731 -2.84217e-014 0 -1.92867 1.64381 -1.0773 -3.83608 24.0346 -0.234509 -10.4368 -0.541684 6.32052 -8.62273 2.84217e-014 2.84217e-014 5.11646 0.090807 0.309298 -31.7064 0 0 -2.77593 -1.67145 1.18608 -23.7731 0 0 -13.0116 -1.8945 2.13881 9.58328 -1.42109e-014 -2.84217e-014 0.354069 10.4949 -0.295738 8.88178e-016 -36.4535 0 -8.31308 -4.75389 5.3998 0 -41.4659 0 14.636 -10.913 5.3065 0 -6.22913 14.3749 -9.93923e-016 -7.95139e-016 -0 -9.58328 0 0 -2.28522 4.92298 3.60191 0 -36.4535 2.84217e-014 4.69509 6.11931 8.84952 3.55271e-015 -41.4659 0 -21.3781 -13.4275 -21.1538 0 -6.22913 14.3749 3.97569e-016 3.18055e-015 -3.18055e-015 
0 0 0 0 0 -0 -11.291 77.3081 -203.165 1.90974 -2.38278 -1.60311 0 7.85829 0 -1.36609 -7.78245 1.44756 -1.77636e-015 25.1384 0 1.02325 -1.81229 1.56497 -8.88178e-016 25.0351 2.27592 -1.45843 32.4277 1.21264 1.77636e-015 13.4166 -1.91665 1.88582 -9.05941 1.44149 3.81534 24.0346 -0.234509 9.70264 2.63359 5.15594 8.62273 0 0 -10.8431 -4.10932 -5.24225 31.7064 2.84217e-014 -2.84217e-014 2.30372 1.61847 0.476805 23.7731 -2.84217e-014 0 -2.03929 1.62803 -1.07496 -3.83608 24.0346 -0.234509 -10.4118 -0.530542 6.33328 -8.62273 -2.84217e-014 0 5.11636 0.115617 0.293561 -31.7064 0 0 -2.79277 -1.68027 1.20058 -23.7731 -2.84217e-014 2.84217e-014 -12.9276 -1.89449 2.14965 9.58328 -1.42109e-014 -2.84217e-014 0.355108 10.4949 -0.301443 0 -36.4535 0 -8.31551 -4.75004 5.37508 -5.32907e-015 -41.4659 0 14.64 -10.8987 5.34716 -3.55271e-015 -6.22913 14.3749 0 0 -0 -9.58328 0 0 -2.28288 4.91337 3.5818 -1.77636e-015 -36.4535 0 4.70076 6.13145 8.86313 -7.10543e-015 -41.4659 0 -21.4577 -13.4259 -21.1719 0 -6.22913 14.3749 -2.18663e-015 0 -0 
0 0 0 0 0 -0 -11.291 77.3081 -203.165 1.90974 -2.38278 -1.60311 0 7.85829 0 -1.36598 -7.77562 1.44963 -1.77636e-015 25.1384 0 1.02667 -1.80841 1.56496 0 25.0351 2.27592 -1.46653 32.4278 1.20887 1.77636e-015 13.4166 -1.91665 1.88612 -9.06291 1.43639 3.81534 24.0346 -0.234509 9.68847 2.64022 5.14837 8.62273 0 2.84217e-014 -10.8462 -4.11409 -5.23092 31.7064 2.84217e-014 0 2.29364 1.62361 0.477841 23.7731 2.84217e-014 0 -2.05422 1.63341 -1.07892 -3.83608 24.0346 -0.234509 -10.4251 -0.532442 6.32154 -8.62273 0 0 5.12716 0.094786 0.307079 -31.7064 -5.68434e-014 -2.84217e-014 -2.80397 -1.66125 1.1911 -23.7731 -2.84217e-014 0 -12.8036 -1.8785 2.19669 9.58328 -1.42109e-014 -2.84217e-014 0.353531 10.4949 -0.292784 0 -36.4535 0 -8.31023 -4.7525 5.43553 0 -41.4659 0 14.5966 -10.9165 5.27968 3.55271e-015 -6.22913 14.3749 -4.41391e-032 -1.59028e-015 -1.59028e-015 -9.58328 0 0 -2.28393 4.91466 3.59301 0 -36.4535 0 4.69564 6.13495 8.86401 -3.55271e-015 -41.4659 0 -21.4903 -13.4251 -21.181 7.10543e-015 -6.22913 14.3749 7.95139e-016 1.59028e-015 1.59028e-015 
0 0 0 0 0 -0 -11.291 77.3081 -203.165 1.90974 -2.38278 -1.60311 0 7.85829 0 -1.36625 -7.75445 1.45154 -1.77636e-015 25.1384 0 1.04283 -1.83107 1.56498 0 25.0351 2.27592 -1.49266 32.4169 1.20546 0 13.4166 -1.91665 1.90975 -9.03759 1.44005 3.81534 24.0346 -0.234509 9.69128 2.68732 5.16957 8.62273 -2.84217e-014 2.84217e-014 -10.8752 -4.09608 -5.26217 31.7064 0 -2.84217e-014 2.29139 1.61323 0.500773 23.7731 0 0 -2.04801 1.62318 -1.1155 -3.83608 24.0346 -0.234509 -10.4699 -0.495811 6.31401 -8.62273 0 -2.84217e-014 5.15674 0.114825 0.316485 -31.7064 -2.84217e-014 0 -2.80003 -1.70441 1.20854 -23.7731 -2.84217e-014 0 -12.8212 -1.92121 2.19312 9.58328 -1.42109e-014 -2.84217e-014 0.355682 10.4949 -0.304594 0 -36.4535 2.84217e-014 -8.3214 -4.74898 5.38483 0 -41.4659 0 14.62 -10.9064 5.33961 0 -6.22913 14.3749 1.98785e-015 7.95139e-016 -0 -9.58328 0 0 -2.28405 4.91797 3.59207 -1.77636e-015 -36.4535 0 4.70154 6.14004 8.89875 -7.10543e-015 -41.4659 2.84217e-014 -21.4977 -13.4224 -21.2119 7.10543e-015 -6.22913 14.3749 9.93923e-016 -1.59028e-015 -0 
